<svg
   xmlns="http://www.w3.org/2000/svg"
   version="1.1"
   id="Layer_1"
   x="0px"
   y="0px"
   viewBox="0 0 5353.1 2991.3751"
   xml:space="preserve">
<style
   type="text/css">
	.st0{fill:#F99D2A;}
	.st1{fill:#3E474C;}
</style>
<g
   transform="translate(0,-0.025)">
	<g
   id="Layer_1-2">
		<g
   id="Artwork_43">
			<path
   class="st0"
   d="m 2287.9,452.3 c 271.6,-207.1 645,-207.1 913.1,0 L 3387.7,221.5 C 3007.5,-73.8 2478,-73.8 2101.2,221.5 Z" />
			<path
   class="st1"
   d="m 3445.4,269 -186.7,230.8 c 146,139.2 230.8,329.3 230.8,532.9 0,129 -33.9,254.6 -98.4,366.6 L 2980.4,1005.5 2790.3,574.4 v 655.1 l 407.3,390.4 c -268.2,200.3 -634.8,200.3 -899.5,0 l 407.3,-390.4 v -655 l -193.5,431.1 -414.1,393.8 C 1928.1,1104.1 1982.4,730.7 2230.2,499.9 L 2043.5,269 C 1826.2,462.5 1704,740.9 1704,1032.8 c 10.2,573.7 485.4,1031.9 1059.1,1021.7 560.1,-10.2 1011.6,-461.7 1021.7,-1021.7 0.1,-291.9 -122.1,-566.9 -339.4,-763.8" />
			
			<polygon
   class="st0"
   points="919.9,2200.5 1038.7,2370.2 801.1,2370.2 " />
			<polygon
   class="st1"
   points="2695.2,2377 2596.8,2601 2505.1,2377 2345.6,2377 2542.5,2821.7 2640.9,2821.7 2742.8,2597.6 2841.2,2821.7 2946.4,2821.7 3139.9,2377 2994,2377 2898.9,2604.4 2800.5,2377 " />
			<polygon
   class="st1"
   points="4928.8,2377 4779.5,2377 4779.5,2821.7 4928.8,2821.7 4928.8,2648.6 5203.8,2648.6 5203.8,2821.7 5353.1,2821.7 5353.1,2377 5203.8,2377 5203.8,2533.2 4928.8,2533.2 " />
			<polygon
   class="st1"
   points="3374.1,2536.5 3557.4,2821.7 3727.2,2821.7 3435.2,2377 3319.8,2377 3024.5,2821.7 3187.4,2821.7 " />
			<polygon
   class="st1"
   points="746.8,2377 577.1,2377 855.4,2821.7 960.6,2821.7 1252.6,2377 1082.8,2377 913.1,2648.6 " />
			<polygon
   class="st1"
   points="3801.8,2821.7 3954.6,2821.7 3954.6,2492.4 4107.4,2492.4 4185.4,2377 3608.4,2377 3608.4,2492.4 3801.8,2492.4 " />
			<path
   class="st1"
   d="m 512.6,2383.8 c -17,-3.4 -33.9,-6.8 -54.3,-6.8 H 125.6 C 47.5,2377 0,2414.3 0,2478.8 v 244.4 c 0,33.9 20.4,67.9 50.9,81.5 l 6.8,3.4 95,-91.7 v -224 h 285.1 v 210.5 H 227.4 l -118.8,115.4 h 353 c 74.7,0 125.6,-40.7 125.6,-101.8 v -230.8 l -67.9,-105.2 z" />
			<path
   class="st1"
   d="m 4589.4,2377 h -302.1 c -6.8,0 -17,0 -23.8,0 h -3.4 l -13.6,20.4 v 0 L 4165,2523 v 196.9 c 0,61.1 50.9,101.8 125.6,101.8 h 302.1 c 71.3,0 125.6,-44.1 125.6,-101.8 v -74.7 h -152.8 v 61.1 H 4311 v -210.5 h 251.2 v 50.9 H 4715 v -67.9 c 0,-61.1 -50.9,-101.8 -125.6,-101.8" />
			<polygon
   class="st1"
   points="1714.2,2706.3 1395.1,2706.3 1395.1,2648.6 1612.4,2648.6 1612.4,2546.7 1395.1,2546.7 1395.1,2492.4 1714.2,2492.4 1714.2,2377 1320.5,2377 1242.4,2489 1242.4,2821.7 1714.2,2821.7 " />
			<path
   class="st1"
   d="m 2206.4,2655.4 c 54.3,-3.4 112,-27.2 112,-81.5 v -105.2 c 0,-57.7 -44.1,-91.7 -115.4,-91.7 h -420.9 v 444.7 h 152.8 v -329.3 h 237.6 v 71.3 0 c -3.4,0 -6.8,3.4 -6.8,3.4 h -162.9 v 88.3 l 186.7,166.3 h 207.1 z" />
			<polygon
   class="st0"
   points="3374.1,2991.4 3255.3,2821.7 3492.9,2821.7 " />
		</g>
	</g>
</g>
</svg>
